<mxfile host="Electron" modified="2024-03-03T22:41:41.625Z" agent="Mozilla/5.0 (Windows NT 10.0; Win64; x64) AppleWebKit/537.36 (KHTML, like Gecko) draw.io/23.0.2 Chrome/120.0.6099.109 Electron/28.1.0 Safari/537.36" etag="klLhi9Ycjmig9AsRANNU" version="23.0.2" type="device">
  <diagram id="C5RBs43oDa-KdzZeNtuy" name="Page-1">
    <mxGraphModel dx="1434" dy="836" grid="1" gridSize="10" guides="1" tooltips="1" connect="1" arrows="1" fold="1" page="1" pageScale="1" pageWidth="827" pageHeight="1169" math="0" shadow="0">
      <root>
        <mxCell id="WIyWlLk6GJQsqaUBKTNV-0" />
        <mxCell id="WIyWlLk6GJQsqaUBKTNV-1" parent="WIyWlLk6GJQsqaUBKTNV-0" />
        <mxCell id="6YocMeG8yH89sb_1ycHZ-62" style="edgeStyle=orthogonalEdgeStyle;rounded=0;orthogonalLoop=1;jettySize=auto;html=1;exitX=0.5;exitY=0;exitDx=0;exitDy=0;endArrow=none;endFill=0;" edge="1" parent="WIyWlLk6GJQsqaUBKTNV-1" source="qp4LRZ5GiIfsaPnHpphe-4">
          <mxGeometry relative="1" as="geometry">
            <mxPoint x="105" y="360" as="targetPoint" />
          </mxGeometry>
        </mxCell>
        <mxCell id="qp4LRZ5GiIfsaPnHpphe-4" value="Workout Builder" style="swimlane;fontStyle=1;align=center;verticalAlign=top;childLayout=stackLayout;horizontal=1;startSize=26;horizontalStack=0;resizeParent=1;resizeParentMax=0;resizeLast=0;collapsible=1;marginBottom=0;whiteSpace=wrap;html=1;" parent="WIyWlLk6GJQsqaUBKTNV-1" vertex="1">
          <mxGeometry x="20" y="372" width="170" height="158" as="geometry" />
        </mxCell>
        <mxCell id="qp4LRZ5GiIfsaPnHpphe-5" value="presetExercises : ExcerciseType" style="text;strokeColor=none;fillColor=none;align=left;verticalAlign=top;spacingLeft=4;spacingRight=4;overflow=hidden;rotatable=0;points=[[0,0.5],[1,0.5]];portConstraint=eastwest;whiteSpace=wrap;html=1;" parent="qp4LRZ5GiIfsaPnHpphe-4" vertex="1">
          <mxGeometry y="26" width="170" height="44" as="geometry" />
        </mxCell>
        <mxCell id="qp4LRZ5GiIfsaPnHpphe-6" value="" style="line;strokeWidth=1;fillColor=none;align=left;verticalAlign=middle;spacingTop=-1;spacingLeft=3;spacingRight=3;rotatable=0;labelPosition=right;points=[];portConstraint=eastwest;strokeColor=inherit;" parent="qp4LRZ5GiIfsaPnHpphe-4" vertex="1">
          <mxGeometry y="70" width="170" height="8" as="geometry" />
        </mxCell>
        <mxCell id="qp4LRZ5GiIfsaPnHpphe-7" value="buildPlan()&lt;br&gt;selectExercise()&lt;br&gt;createExercise()&lt;br&gt;moveExercise()" style="text;strokeColor=none;fillColor=none;align=left;verticalAlign=top;spacingLeft=4;spacingRight=4;overflow=hidden;rotatable=0;points=[[0,0.5],[1,0.5]];portConstraint=eastwest;whiteSpace=wrap;html=1;" parent="qp4LRZ5GiIfsaPnHpphe-4" vertex="1">
          <mxGeometry y="78" width="170" height="80" as="geometry" />
        </mxCell>
        <mxCell id="qp4LRZ5GiIfsaPnHpphe-33" style="edgeStyle=orthogonalEdgeStyle;rounded=0;orthogonalLoop=1;jettySize=auto;html=1;exitX=0.5;exitY=0;exitDx=0;exitDy=0;endArrow=none;endFill=0;entryX=0.467;entryY=0.996;entryDx=0;entryDy=0;entryPerimeter=0;" parent="WIyWlLk6GJQsqaUBKTNV-1" source="qp4LRZ5GiIfsaPnHpphe-8" edge="1" target="qp4LRZ5GiIfsaPnHpphe-7">
          <mxGeometry relative="1" as="geometry">
            <mxPoint x="100" y="540" as="targetPoint" />
            <Array as="points">
              <mxPoint x="170" y="590" />
              <mxPoint x="99" y="590" />
            </Array>
          </mxGeometry>
        </mxCell>
        <mxCell id="qp4LRZ5GiIfsaPnHpphe-44" style="edgeStyle=orthogonalEdgeStyle;rounded=0;orthogonalLoop=1;jettySize=auto;html=1;exitX=0.5;exitY=0;exitDx=0;exitDy=0;endArrow=none;endFill=0;" parent="WIyWlLk6GJQsqaUBKTNV-1" source="qp4LRZ5GiIfsaPnHpphe-8" edge="1">
          <mxGeometry relative="1" as="geometry">
            <mxPoint x="300" y="540" as="targetPoint" />
            <Array as="points">
              <mxPoint x="170" y="590" />
              <mxPoint x="301" y="590" />
              <mxPoint x="301" y="540" />
            </Array>
          </mxGeometry>
        </mxCell>
        <mxCell id="qp4LRZ5GiIfsaPnHpphe-45" style="edgeStyle=orthogonalEdgeStyle;rounded=0;orthogonalLoop=1;jettySize=auto;html=1;exitX=0.5;exitY=0;exitDx=0;exitDy=0;endArrow=none;endFill=0;entryX=0.475;entryY=1.048;entryDx=0;entryDy=0;entryPerimeter=0;" parent="WIyWlLk6GJQsqaUBKTNV-1" source="qp4LRZ5GiIfsaPnHpphe-8" edge="1" target="qp4LRZ5GiIfsaPnHpphe-15">
          <mxGeometry relative="1" as="geometry">
            <mxPoint x="491.42857142857144" y="540" as="targetPoint" />
            <Array as="points">
              <mxPoint x="170" y="590" />
              <mxPoint x="526" y="590" />
            </Array>
          </mxGeometry>
        </mxCell>
        <mxCell id="qp4LRZ5GiIfsaPnHpphe-8" value="&lt;i&gt;User&lt;/i&gt;" style="swimlane;fontStyle=1;align=center;verticalAlign=top;childLayout=stackLayout;horizontal=1;startSize=26;horizontalStack=0;resizeParent=1;resizeParentMax=0;resizeLast=0;collapsible=1;marginBottom=0;whiteSpace=wrap;html=1;" parent="WIyWlLk6GJQsqaUBKTNV-1" vertex="1">
          <mxGeometry x="90" y="660" width="160" height="168" as="geometry">
            <mxRectangle x="540" y="200" width="80" height="30" as="alternateBounds" />
          </mxGeometry>
        </mxCell>
        <mxCell id="qp4LRZ5GiIfsaPnHpphe-9" value="username : string&lt;br&gt;password: string&lt;br&gt;level: int&lt;br&gt;xp: int" style="text;strokeColor=none;fillColor=none;align=left;verticalAlign=top;spacingLeft=4;spacingRight=4;overflow=hidden;rotatable=0;points=[[0,0.5],[1,0.5]];portConstraint=eastwest;whiteSpace=wrap;html=1;" parent="qp4LRZ5GiIfsaPnHpphe-8" vertex="1">
          <mxGeometry y="26" width="160" height="64" as="geometry" />
        </mxCell>
        <mxCell id="qp4LRZ5GiIfsaPnHpphe-10" value="" style="line;strokeWidth=1;fillColor=none;align=left;verticalAlign=middle;spacingTop=-1;spacingLeft=3;spacingRight=3;rotatable=0;labelPosition=right;points=[];portConstraint=eastwest;strokeColor=inherit;" parent="qp4LRZ5GiIfsaPnHpphe-8" vertex="1">
          <mxGeometry y="90" width="160" height="8" as="geometry" />
        </mxCell>
        <mxCell id="qp4LRZ5GiIfsaPnHpphe-11" value="getProfileData()&lt;br&gt;getLevel()&lt;br&gt;getXP()&lt;br&gt;updateLevel()" style="text;strokeColor=none;fillColor=none;align=left;verticalAlign=top;spacingLeft=4;spacingRight=4;overflow=hidden;rotatable=0;points=[[0,0.5],[1,0.5]];portConstraint=eastwest;whiteSpace=wrap;html=1;" parent="qp4LRZ5GiIfsaPnHpphe-8" vertex="1">
          <mxGeometry y="98" width="160" height="70" as="geometry" />
        </mxCell>
        <mxCell id="qp4LRZ5GiIfsaPnHpphe-12" value="Calendar" style="swimlane;fontStyle=1;align=center;verticalAlign=top;childLayout=stackLayout;horizontal=1;startSize=26;horizontalStack=0;resizeParent=1;resizeParentMax=0;resizeLast=0;collapsible=1;marginBottom=0;whiteSpace=wrap;html=1;" parent="WIyWlLk6GJQsqaUBKTNV-1" vertex="1">
          <mxGeometry x="450" y="420" width="160" height="110" as="geometry" />
        </mxCell>
        <mxCell id="qp4LRZ5GiIfsaPnHpphe-13" value="month: string&lt;br&gt;days: int" style="text;strokeColor=none;fillColor=none;align=left;verticalAlign=top;spacingLeft=4;spacingRight=4;overflow=hidden;rotatable=0;points=[[0,0.5],[1,0.5]];portConstraint=eastwest;whiteSpace=wrap;html=1;" parent="qp4LRZ5GiIfsaPnHpphe-12" vertex="1">
          <mxGeometry y="26" width="160" height="34" as="geometry" />
        </mxCell>
        <mxCell id="qp4LRZ5GiIfsaPnHpphe-14" value="" style="line;strokeWidth=1;fillColor=none;align=left;verticalAlign=middle;spacingTop=-1;spacingLeft=3;spacingRight=3;rotatable=0;labelPosition=right;points=[];portConstraint=eastwest;strokeColor=inherit;" parent="qp4LRZ5GiIfsaPnHpphe-12" vertex="1">
          <mxGeometry y="60" width="160" height="8" as="geometry" />
        </mxCell>
        <mxCell id="qp4LRZ5GiIfsaPnHpphe-15" value="updateDay()&lt;br&gt;importWorkout()" style="text;strokeColor=none;fillColor=none;align=left;verticalAlign=top;spacingLeft=4;spacingRight=4;overflow=hidden;rotatable=0;points=[[0,0.5],[1,0.5]];portConstraint=eastwest;whiteSpace=wrap;html=1;" parent="qp4LRZ5GiIfsaPnHpphe-12" vertex="1">
          <mxGeometry y="68" width="160" height="42" as="geometry" />
        </mxCell>
        <mxCell id="qp4LRZ5GiIfsaPnHpphe-16" value="Journal" style="swimlane;fontStyle=1;align=center;verticalAlign=top;childLayout=stackLayout;horizontal=1;startSize=26;horizontalStack=0;resizeParent=1;resizeParentMax=0;resizeLast=0;collapsible=1;marginBottom=0;whiteSpace=wrap;html=1;" parent="WIyWlLk6GJQsqaUBKTNV-1" vertex="1">
          <mxGeometry x="220" y="428" width="160" height="110" as="geometry" />
        </mxCell>
        <mxCell id="qp4LRZ5GiIfsaPnHpphe-17" value="journalEntry: string" style="text;strokeColor=none;fillColor=none;align=left;verticalAlign=top;spacingLeft=4;spacingRight=4;overflow=hidden;rotatable=0;points=[[0,0.5],[1,0.5]];portConstraint=eastwest;whiteSpace=wrap;html=1;" parent="qp4LRZ5GiIfsaPnHpphe-16" vertex="1">
          <mxGeometry y="26" width="160" height="26" as="geometry" />
        </mxCell>
        <mxCell id="qp4LRZ5GiIfsaPnHpphe-18" value="" style="line;strokeWidth=1;fillColor=none;align=left;verticalAlign=middle;spacingTop=-1;spacingLeft=3;spacingRight=3;rotatable=0;labelPosition=right;points=[];portConstraint=eastwest;strokeColor=inherit;" parent="qp4LRZ5GiIfsaPnHpphe-16" vertex="1">
          <mxGeometry y="52" width="160" height="8" as="geometry" />
        </mxCell>
        <mxCell id="qp4LRZ5GiIfsaPnHpphe-19" value="addEntry()&lt;br&gt;editEntry()&lt;br&gt;deleteEntry" style="text;strokeColor=none;fillColor=none;align=left;verticalAlign=top;spacingLeft=4;spacingRight=4;overflow=hidden;rotatable=0;points=[[0,0.5],[1,0.5]];portConstraint=eastwest;whiteSpace=wrap;html=1;" parent="qp4LRZ5GiIfsaPnHpphe-16" vertex="1">
          <mxGeometry y="60" width="160" height="50" as="geometry" />
        </mxCell>
        <mxCell id="qp4LRZ5GiIfsaPnHpphe-36" value="Accesses" style="text;html=1;align=center;verticalAlign=middle;resizable=0;points=[];autosize=1;strokeColor=none;fillColor=none;" parent="WIyWlLk6GJQsqaUBKTNV-1" vertex="1">
          <mxGeometry x="164" y="610" width="70" height="30" as="geometry" />
        </mxCell>
        <mxCell id="qp4LRZ5GiIfsaPnHpphe-38" value="Workout" style="swimlane;fontStyle=1;align=center;verticalAlign=top;childLayout=stackLayout;horizontal=1;startSize=26;horizontalStack=0;resizeParent=1;resizeParentMax=0;resizeLast=0;collapsible=1;marginBottom=0;whiteSpace=wrap;html=1;" parent="WIyWlLk6GJQsqaUBKTNV-1" vertex="1">
          <mxGeometry x="234" y="200" width="160" height="140" as="geometry" />
        </mxCell>
        <mxCell id="qp4LRZ5GiIfsaPnHpphe-39" value="schedule : Schedule totalXP: int" style="text;strokeColor=none;fillColor=none;align=left;verticalAlign=top;spacingLeft=4;spacingRight=4;overflow=hidden;rotatable=0;points=[[0,0.5],[1,0.5]];portConstraint=eastwest;whiteSpace=wrap;html=1;" parent="qp4LRZ5GiIfsaPnHpphe-38" vertex="1">
          <mxGeometry y="26" width="160" height="34" as="geometry" />
        </mxCell>
        <mxCell id="qp4LRZ5GiIfsaPnHpphe-40" value="" style="line;strokeWidth=1;fillColor=none;align=left;verticalAlign=middle;spacingTop=-1;spacingLeft=3;spacingRight=3;rotatable=0;labelPosition=right;points=[];portConstraint=eastwest;strokeColor=inherit;" parent="qp4LRZ5GiIfsaPnHpphe-38" vertex="1">
          <mxGeometry y="60" width="160" height="8" as="geometry" />
        </mxCell>
        <mxCell id="qp4LRZ5GiIfsaPnHpphe-41" value="isComplete()&lt;br&gt;updateXP()&lt;div&gt;copyWorkout()&lt;/div&gt;&lt;div&gt;calculateTotalXP&lt;/div&gt;" style="text;strokeColor=none;fillColor=none;align=left;verticalAlign=top;spacingLeft=4;spacingRight=4;overflow=hidden;rotatable=0;points=[[0,0.5],[1,0.5]];portConstraint=eastwest;whiteSpace=wrap;html=1;" parent="qp4LRZ5GiIfsaPnHpphe-38" vertex="1">
          <mxGeometry y="68" width="160" height="72" as="geometry" />
        </mxCell>
        <mxCell id="qp4LRZ5GiIfsaPnHpphe-48" style="edgeStyle=orthogonalEdgeStyle;rounded=0;orthogonalLoop=1;jettySize=auto;html=1;entryX=-0.006;entryY=1.206;entryDx=0;entryDy=0;entryPerimeter=0;endArrow=none;endFill=0;" parent="WIyWlLk6GJQsqaUBKTNV-1" target="qp4LRZ5GiIfsaPnHpphe-39" edge="1">
          <mxGeometry relative="1" as="geometry">
            <mxPoint x="105" y="370" as="sourcePoint" />
          </mxGeometry>
        </mxCell>
        <mxCell id="qp4LRZ5GiIfsaPnHpphe-49" style="edgeStyle=orthogonalEdgeStyle;rounded=0;orthogonalLoop=1;jettySize=auto;html=1;exitX=0.5;exitY=0;exitDx=0;exitDy=0;entryX=0.413;entryY=1;entryDx=0;entryDy=0;entryPerimeter=0;endArrow=none;endFill=0;" parent="WIyWlLk6GJQsqaUBKTNV-1" source="qp4LRZ5GiIfsaPnHpphe-16" target="qp4LRZ5GiIfsaPnHpphe-41" edge="1">
          <mxGeometry relative="1" as="geometry" />
        </mxCell>
        <mxCell id="qp4LRZ5GiIfsaPnHpphe-50" style="edgeStyle=orthogonalEdgeStyle;rounded=0;orthogonalLoop=1;jettySize=auto;html=1;exitX=0.5;exitY=0;exitDx=0;exitDy=0;entryX=1.013;entryY=1.088;entryDx=0;entryDy=0;entryPerimeter=0;endArrow=none;endFill=0;" parent="WIyWlLk6GJQsqaUBKTNV-1" source="qp4LRZ5GiIfsaPnHpphe-12" target="qp4LRZ5GiIfsaPnHpphe-39" edge="1">
          <mxGeometry relative="1" as="geometry" />
        </mxCell>
        <mxCell id="qp4LRZ5GiIfsaPnHpphe-51" value="Creates" style="text;html=1;align=center;verticalAlign=middle;resizable=0;points=[];autosize=1;strokeColor=none;fillColor=none;" parent="WIyWlLk6GJQsqaUBKTNV-1" vertex="1">
          <mxGeometry x="120" y="240" width="70" height="30" as="geometry" />
        </mxCell>
        <mxCell id="qp4LRZ5GiIfsaPnHpphe-53" value="References" style="text;html=1;align=center;verticalAlign=middle;resizable=0;points=[];autosize=1;strokeColor=none;fillColor=none;" parent="WIyWlLk6GJQsqaUBKTNV-1" vertex="1">
          <mxGeometry x="300" y="370" width="80" height="30" as="geometry" />
        </mxCell>
        <mxCell id="qp4LRZ5GiIfsaPnHpphe-54" value="Placed In / &lt;br&gt;Viewed In" style="text;html=1;align=center;verticalAlign=middle;resizable=0;points=[];autosize=1;strokeColor=none;fillColor=none;" parent="WIyWlLk6GJQsqaUBKTNV-1" vertex="1">
          <mxGeometry x="460" y="318" width="80" height="40" as="geometry" />
        </mxCell>
        <mxCell id="gprexT4NHklsbpWwVksR-0" value="1..*" style="text;html=1;align=center;verticalAlign=middle;resizable=0;points=[];autosize=1;strokeColor=none;fillColor=none;" parent="WIyWlLk6GJQsqaUBKTNV-1" vertex="1">
          <mxGeometry x="100" y="300" width="40" height="30" as="geometry" />
        </mxCell>
        <mxCell id="gprexT4NHklsbpWwVksR-1" value="0..*" style="text;html=1;align=center;verticalAlign=middle;resizable=0;points=[];autosize=1;strokeColor=none;fillColor=none;" parent="WIyWlLk6GJQsqaUBKTNV-1" vertex="1">
          <mxGeometry x="294" y="400" width="40" height="30" as="geometry" />
        </mxCell>
        <mxCell id="gprexT4NHklsbpWwVksR-2" value="1..*" style="text;html=1;align=center;verticalAlign=middle;resizable=0;points=[];autosize=1;strokeColor=none;fillColor=none;" parent="WIyWlLk6GJQsqaUBKTNV-1" vertex="1">
          <mxGeometry x="530" y="390" width="40" height="30" as="geometry" />
        </mxCell>
        <mxCell id="gprexT4NHklsbpWwVksR-3" value="1" style="text;html=1;align=center;verticalAlign=middle;whiteSpace=wrap;rounded=0;" parent="WIyWlLk6GJQsqaUBKTNV-1" vertex="1">
          <mxGeometry x="190" y="240" width="60" height="30" as="geometry" />
        </mxCell>
        <mxCell id="gprexT4NHklsbpWwVksR-4" value="0..*" style="text;html=1;align=center;verticalAlign=middle;whiteSpace=wrap;rounded=0;" parent="WIyWlLk6GJQsqaUBKTNV-1" vertex="1">
          <mxGeometry x="250" y="340" width="60" height="30" as="geometry" />
        </mxCell>
        <mxCell id="gprexT4NHklsbpWwVksR-5" value="1" style="text;html=1;align=center;verticalAlign=middle;whiteSpace=wrap;rounded=0;" parent="WIyWlLk6GJQsqaUBKTNV-1" vertex="1">
          <mxGeometry x="370" y="260" width="60" height="30" as="geometry" />
        </mxCell>
        <mxCell id="gprexT4NHklsbpWwVksR-7" value="Administrator" style="swimlane;fontStyle=1;align=center;verticalAlign=top;childLayout=stackLayout;horizontal=1;startSize=26;horizontalStack=0;resizeParent=1;resizeParentMax=0;resizeLast=0;collapsible=1;marginBottom=0;whiteSpace=wrap;html=1;" parent="WIyWlLk6GJQsqaUBKTNV-1" vertex="1">
          <mxGeometry x="370" y="660" width="160" height="110" as="geometry" />
        </mxCell>
        <mxCell id="gprexT4NHklsbpWwVksR-8" value="AdminID: int" style="text;strokeColor=none;fillColor=none;align=left;verticalAlign=top;spacingLeft=4;spacingRight=4;overflow=hidden;rotatable=0;points=[[0,0.5],[1,0.5]];portConstraint=eastwest;whiteSpace=wrap;html=1;" parent="gprexT4NHklsbpWwVksR-7" vertex="1">
          <mxGeometry y="26" width="160" height="26" as="geometry" />
        </mxCell>
        <mxCell id="gprexT4NHklsbpWwVksR-9" value="" style="line;strokeWidth=1;fillColor=none;align=left;verticalAlign=middle;spacingTop=-1;spacingLeft=3;spacingRight=3;rotatable=0;labelPosition=right;points=[];portConstraint=eastwest;strokeColor=inherit;" parent="gprexT4NHklsbpWwVksR-7" vertex="1">
          <mxGeometry y="52" width="160" height="8" as="geometry" />
        </mxCell>
        <mxCell id="gprexT4NHklsbpWwVksR-10" value="setLevel()&lt;br&gt;createPresetExercise()&lt;br&gt;createPresetJournalPrompt()" style="text;strokeColor=none;fillColor=none;align=left;verticalAlign=top;spacingLeft=4;spacingRight=4;overflow=hidden;rotatable=0;points=[[0,0.5],[1,0.5]];portConstraint=eastwest;whiteSpace=wrap;html=1;" parent="gprexT4NHklsbpWwVksR-7" vertex="1">
          <mxGeometry y="60" width="160" height="50" as="geometry" />
        </mxCell>
        <mxCell id="6YocMeG8yH89sb_1ycHZ-38" value="Schedule" style="swimlane;fontStyle=1;align=center;verticalAlign=top;childLayout=stackLayout;horizontal=1;startSize=26;horizontalStack=0;resizeParent=1;resizeParentMax=0;resizeLast=0;collapsible=1;marginBottom=0;whiteSpace=wrap;html=1;" vertex="1" parent="WIyWlLk6GJQsqaUBKTNV-1">
          <mxGeometry x="450" y="90" width="160" height="100" as="geometry" />
        </mxCell>
        <mxCell id="6YocMeG8yH89sb_1ycHZ-39" value="exercises: ExerciseType list" style="text;strokeColor=none;fillColor=none;align=left;verticalAlign=top;spacingLeft=4;spacingRight=4;overflow=hidden;rotatable=0;points=[[0,0.5],[1,0.5]];portConstraint=eastwest;whiteSpace=wrap;html=1;" vertex="1" parent="6YocMeG8yH89sb_1ycHZ-38">
          <mxGeometry y="26" width="160" height="26" as="geometry" />
        </mxCell>
        <mxCell id="6YocMeG8yH89sb_1ycHZ-40" value="" style="line;strokeWidth=1;fillColor=none;align=left;verticalAlign=middle;spacingTop=-1;spacingLeft=3;spacingRight=3;rotatable=0;labelPosition=right;points=[];portConstraint=eastwest;strokeColor=inherit;" vertex="1" parent="6YocMeG8yH89sb_1ycHZ-38">
          <mxGeometry y="52" width="160" height="8" as="geometry" />
        </mxCell>
        <mxCell id="6YocMeG8yH89sb_1ycHZ-41" value="createWorkout()&lt;br&gt;arrangeExercises()" style="text;strokeColor=none;fillColor=none;align=left;verticalAlign=top;spacingLeft=4;spacingRight=4;overflow=hidden;rotatable=0;points=[[0,0.5],[1,0.5]];portConstraint=eastwest;whiteSpace=wrap;html=1;" vertex="1" parent="6YocMeG8yH89sb_1ycHZ-38">
          <mxGeometry y="60" width="160" height="40" as="geometry" />
        </mxCell>
        <mxCell id="6YocMeG8yH89sb_1ycHZ-42" value="ExerciseType" style="swimlane;fontStyle=1;align=center;verticalAlign=top;childLayout=stackLayout;horizontal=1;startSize=26;horizontalStack=0;resizeParent=1;resizeParentMax=0;resizeLast=0;collapsible=1;marginBottom=0;whiteSpace=wrap;html=1;" vertex="1" parent="WIyWlLk6GJQsqaUBKTNV-1">
          <mxGeometry x="640" y="300" width="160" height="160" as="geometry" />
        </mxCell>
        <mxCell id="6YocMeG8yH89sb_1ycHZ-43" value="name : string&lt;br&gt;sets : int&lt;br&gt;reps : int&lt;br&gt;xpVal = int" style="text;strokeColor=none;fillColor=none;align=left;verticalAlign=top;spacingLeft=4;spacingRight=4;overflow=hidden;rotatable=0;points=[[0,0.5],[1,0.5]];portConstraint=eastwest;whiteSpace=wrap;html=1;" vertex="1" parent="6YocMeG8yH89sb_1ycHZ-42">
          <mxGeometry y="26" width="160" height="64" as="geometry" />
        </mxCell>
        <mxCell id="6YocMeG8yH89sb_1ycHZ-44" value="" style="line;strokeWidth=1;fillColor=none;align=left;verticalAlign=middle;spacingTop=-1;spacingLeft=3;spacingRight=3;rotatable=0;labelPosition=right;points=[];portConstraint=eastwest;strokeColor=inherit;" vertex="1" parent="6YocMeG8yH89sb_1ycHZ-42">
          <mxGeometry y="90" width="160" height="8" as="geometry" />
        </mxCell>
        <mxCell id="6YocMeG8yH89sb_1ycHZ-45" value="setXP()&lt;br&gt;setName()&lt;br&gt;setSets()&lt;br&gt;setReps()" style="text;strokeColor=none;fillColor=none;align=left;verticalAlign=top;spacingLeft=4;spacingRight=4;overflow=hidden;rotatable=0;points=[[0,0.5],[1,0.5]];portConstraint=eastwest;whiteSpace=wrap;html=1;" vertex="1" parent="6YocMeG8yH89sb_1ycHZ-42">
          <mxGeometry y="98" width="160" height="62" as="geometry" />
        </mxCell>
        <mxCell id="6YocMeG8yH89sb_1ycHZ-51" style="edgeStyle=orthogonalEdgeStyle;rounded=0;orthogonalLoop=1;jettySize=auto;html=1;exitX=0.5;exitY=0;exitDx=0;exitDy=0;entryX=-0.025;entryY=-0.1;entryDx=0;entryDy=0;entryPerimeter=0;endArrow=none;endFill=0;startArrow=diamond;startFill=1;" edge="1" parent="WIyWlLk6GJQsqaUBKTNV-1" source="qp4LRZ5GiIfsaPnHpphe-38" target="6YocMeG8yH89sb_1ycHZ-41">
          <mxGeometry relative="1" as="geometry" />
        </mxCell>
        <mxCell id="6YocMeG8yH89sb_1ycHZ-52" value="1" style="text;html=1;align=center;verticalAlign=middle;resizable=0;points=[];autosize=1;strokeColor=none;fillColor=none;" vertex="1" parent="WIyWlLk6GJQsqaUBKTNV-1">
          <mxGeometry x="310" y="170" width="30" height="30" as="geometry" />
        </mxCell>
        <mxCell id="6YocMeG8yH89sb_1ycHZ-53" value="1" style="text;html=1;align=center;verticalAlign=middle;resizable=0;points=[];autosize=1;strokeColor=none;fillColor=none;" vertex="1" parent="WIyWlLk6GJQsqaUBKTNV-1">
          <mxGeometry x="420" y="118" width="30" height="30" as="geometry" />
        </mxCell>
        <mxCell id="6YocMeG8yH89sb_1ycHZ-54" value="1..*" style="text;html=1;align=center;verticalAlign=middle;resizable=0;points=[];autosize=1;strokeColor=none;fillColor=none;" vertex="1" parent="WIyWlLk6GJQsqaUBKTNV-1">
          <mxGeometry x="720" y="270" width="40" height="30" as="geometry" />
        </mxCell>
        <mxCell id="6YocMeG8yH89sb_1ycHZ-55" value="1" style="text;html=1;align=center;verticalAlign=middle;resizable=0;points=[];autosize=1;strokeColor=none;fillColor=none;" vertex="1" parent="WIyWlLk6GJQsqaUBKTNV-1">
          <mxGeometry x="610" y="110" width="30" height="30" as="geometry" />
        </mxCell>
        <mxCell id="6YocMeG8yH89sb_1ycHZ-56" value="Is A" style="text;html=1;align=center;verticalAlign=middle;resizable=0;points=[];autosize=1;strokeColor=none;fillColor=none;" vertex="1" parent="WIyWlLk6GJQsqaUBKTNV-1">
          <mxGeometry x="330" y="118" width="40" height="30" as="geometry" />
        </mxCell>
        <mxCell id="6YocMeG8yH89sb_1ycHZ-57" value="Made of" style="text;html=1;align=center;verticalAlign=middle;resizable=0;points=[];autosize=1;strokeColor=none;fillColor=none;" vertex="1" parent="WIyWlLk6GJQsqaUBKTNV-1">
          <mxGeometry x="710" y="200" width="70" height="30" as="geometry" />
        </mxCell>
        <mxCell id="6YocMeG8yH89sb_1ycHZ-59" style="edgeStyle=orthogonalEdgeStyle;rounded=0;orthogonalLoop=1;jettySize=auto;html=1;entryX=1.025;entryY=0.203;entryDx=0;entryDy=0;entryPerimeter=0;endArrow=block;endFill=0;" edge="1" parent="WIyWlLk6GJQsqaUBKTNV-1" source="gprexT4NHklsbpWwVksR-8" target="qp4LRZ5GiIfsaPnHpphe-9">
          <mxGeometry relative="1" as="geometry" />
        </mxCell>
        <mxCell id="6YocMeG8yH89sb_1ycHZ-60" value="Can be an" style="text;html=1;align=center;verticalAlign=middle;resizable=0;points=[];autosize=1;strokeColor=none;fillColor=none;" vertex="1" parent="WIyWlLk6GJQsqaUBKTNV-1">
          <mxGeometry x="274" y="670" width="80" height="30" as="geometry" />
        </mxCell>
        <mxCell id="6YocMeG8yH89sb_1ycHZ-63" style="edgeStyle=orthogonalEdgeStyle;rounded=0;orthogonalLoop=1;jettySize=auto;html=1;exitX=0.5;exitY=0;exitDx=0;exitDy=0;entryX=1.025;entryY=1.154;entryDx=0;entryDy=0;entryPerimeter=0;endArrow=diamond;endFill=1;" edge="1" parent="WIyWlLk6GJQsqaUBKTNV-1" source="6YocMeG8yH89sb_1ycHZ-42" target="6YocMeG8yH89sb_1ycHZ-39">
          <mxGeometry relative="1" as="geometry" />
        </mxCell>
      </root>
    </mxGraphModel>
  </diagram>
</mxfile>
